<svg xmlns="http://www.w3.org/2000/svg" xmlns:xlink="http://www.w3.org/1999/xlink" width="900" zoomAndPan="magnify" viewBox="0 0 675 449.999984" height="600" preserveAspectRatio="xMidYMid meet" version="1.0"><defs><g/></defs><g fill="#000000" fill-opacity="1"><g transform="translate(7.392789, 219.61867)"><g><path d="M 22.371094 -5.039062 L 11.304688 -5.039062 C 10.589844 -5.039062 10.011719 -5.109375 9.535156 -5.277344 C 9.125 -5.414062 8.785156 -5.652344 8.546875 -6.027344 C 8.273438 -6.402344 8.070312 -6.914062 7.96875 -7.527344 C 7.832031 -8.207031 7.796875 -9.058594 7.796875 -10.078125 L 7.796875 -26.867188 C 7.796875 -27.957031 7.117188 -28.058594 6.84375 -28.058594 L 3.710938 -28.058594 C 3.40625 -28.058594 2.722656 -27.957031 2.722656 -26.867188 L 2.722656 -10.660156 C 2.722656 -8.75 2.894531 -7.117188 3.199219 -5.789062 C 3.507812 -4.425781 3.984375 -3.304688 4.664062 -2.453125 C 5.347656 -1.566406 6.230469 -0.917969 7.320312 -0.542969 C 8.34375 -0.171875 9.636719 0.0351562 11.136719 0.0351562 L 22.371094 0.0351562 C 22.679688 0.0351562 23.324219 -0.101562 23.324219 -1.15625 L 23.324219 -3.847656 C 23.324219 -4.902344 22.679688 -5.039062 22.371094 -5.039062 Z M 22.371094 -5.039062 "/></g></g></g><g fill="#000000" fill-opacity="1"><g transform="translate(35.141374, 219.61867)"><g><path d="M 6.808594 -28.058594 L 3.675781 -28.058594 C 3.40625 -28.058594 2.722656 -27.921875 2.722656 -26.867188 L 2.722656 -1.15625 C 2.722656 -0.101562 3.40625 0.0351562 3.675781 0.0351562 L 6.808594 0.0351562 C 7.082031 0.0351562 7.765625 -0.101562 7.765625 -1.15625 L 7.765625 -26.867188 C 7.765625 -27.921875 7.082031 -28.058594 6.808594 -28.058594 Z M 6.808594 -28.058594 "/></g></g></g><g fill="#000000" fill-opacity="1"><g transform="translate(47.330324, 219.61867)"><g><path d="M 26.253906 -28.058594 L 3.710938 -28.058594 C 3.40625 -28.058594 2.722656 -27.957031 2.722656 -26.902344 L 2.722656 -24.246094 C 2.722656 -23.121094 3.40625 -23.019531 3.710938 -23.019531 L 12.464844 -23.019531 L 12.464844 -1.15625 C 12.464844 -0.101562 13.144531 0 13.417969 0 L 16.550781 0 C 16.855469 0 17.503906 -0.101562 17.503906 -1.15625 L 17.503906 -23.019531 L 26.253906 -23.019531 C 26.5625 -23.019531 27.242188 -23.121094 27.242188 -24.246094 L 27.242188 -26.902344 C 27.242188 -27.957031 26.5625 -28.058594 26.253906 -28.058594 Z M 26.253906 -28.058594 "/></g></g></g><g fill="#000000" fill-opacity="1"><g transform="translate(78.994355, 219.61867)"><g><path d="M 24.722656 -28.058594 L 21.589844 -28.058594 C 21.316406 -28.058594 20.667969 -27.921875 20.667969 -26.867188 L 20.667969 -16.6875 L 7.765625 -16.6875 L 7.765625 -26.867188 C 7.765625 -27.921875 7.117188 -28.058594 6.808594 -28.058594 L 3.710938 -28.058594 C 3.40625 -28.058594 2.722656 -27.921875 2.722656 -26.867188 L 2.722656 -1.15625 C 2.722656 -0.101562 3.40625 0.0351562 3.710938 0.0351562 L 6.808594 0.0351562 C 7.117188 0.0351562 7.765625 -0.101562 7.765625 -1.15625 L 7.765625 -11.644531 L 20.667969 -11.644531 L 20.667969 -1.15625 C 20.667969 -0.101562 21.316406 0.0351562 21.589844 0.0351562 L 24.722656 0.0351562 C 25.027344 0.0351562 25.710938 -0.101562 25.710938 -1.15625 L 25.710938 -26.867188 C 25.710938 -27.921875 25.027344 -28.058594 24.722656 -28.058594 Z M 24.722656 -28.058594 "/></g></g></g><g fill="#000000" fill-opacity="1"><g transform="translate(109.126255, 219.61867)"><g><path d="M 26.253906 -28.058594 L 3.710938 -28.058594 C 3.40625 -28.058594 2.722656 -27.957031 2.722656 -26.902344 L 2.722656 -24.246094 C 2.722656 -23.121094 3.40625 -23.019531 3.710938 -23.019531 L 12.464844 -23.019531 L 12.464844 -1.15625 C 12.464844 -0.101562 13.144531 0 13.417969 0 L 16.550781 0 C 16.855469 0 17.503906 -0.101562 17.503906 -1.15625 L 17.503906 -23.019531 L 26.253906 -23.019531 C 26.5625 -23.019531 27.242188 -23.121094 27.242188 -24.246094 L 27.242188 -26.902344 C 27.242188 -27.957031 26.5625 -28.058594 26.253906 -28.058594 Z M 26.253906 -28.058594 "/></g></g></g><g fill="#000000" fill-opacity="1"><g transform="translate(140.790291, 219.61867)"><g><path d="M 22.371094 -5.039062 L 11.304688 -5.039062 C 10.589844 -5.039062 10.011719 -5.109375 9.535156 -5.277344 C 9.125 -5.414062 8.785156 -5.652344 8.546875 -6.027344 C 8.273438 -6.402344 8.070312 -6.914062 7.96875 -7.527344 C 7.832031 -8.207031 7.796875 -9.058594 7.796875 -10.078125 L 7.796875 -26.867188 C 7.796875 -27.957031 7.117188 -28.058594 6.84375 -28.058594 L 3.710938 -28.058594 C 3.40625 -28.058594 2.722656 -27.957031 2.722656 -26.867188 L 2.722656 -10.660156 C 2.722656 -8.75 2.894531 -7.117188 3.199219 -5.789062 C 3.507812 -4.425781 3.984375 -3.304688 4.664062 -2.453125 C 5.347656 -1.566406 6.230469 -0.917969 7.320312 -0.542969 C 8.34375 -0.171875 9.636719 0.0351562 11.136719 0.0351562 L 22.371094 0.0351562 C 22.679688 0.0351562 23.324219 -0.101562 23.324219 -1.15625 L 23.324219 -3.847656 C 23.324219 -4.902344 22.679688 -5.039062 22.371094 -5.039062 Z M 22.371094 -5.039062 "/></g></g></g><g fill="#000000" fill-opacity="1"><g transform="translate(168.538882, 219.61867)"><g><path d="M 23.191406 -6.09375 L 11.203125 -6.09375 C 10.488281 -6.09375 9.910156 -6.199219 9.433594 -6.332031 C 8.988281 -6.503906 8.683594 -6.742188 8.410156 -7.082031 C 8.136719 -7.457031 7.933594 -7.96875 7.832031 -8.617188 C 7.796875 -8.785156 7.796875 -9.023438 7.765625 -9.195312 C 7.765625 -9.195312 7.796875 -11.644531 7.832031 -11.644531 L 23.054688 -11.644531 C 23.324219 -11.644531 24.007812 -11.78125 24.007812 -12.835938 L 24.007812 -15.527344 C 24.007812 -16.582031 23.324219 -16.6875 23.054688 -16.6875 L 5.484375 -16.652344 C 4.496094 -16.582031 3.644531 -16.074219 3.167969 -15.222656 C 2.996094 -14.949219 2.859375 -14.675781 2.792969 -14.371094 L 2.722656 -10.078125 L 2.722656 -9.910156 C 2.757812 -8.308594 2.929688 -6.945312 3.167969 -5.824219 C 3.472656 -4.460938 3.984375 -3.335938 4.632812 -2.484375 C 5.3125 -1.601562 6.199219 -0.988281 7.289062 -0.613281 C 8.34375 -0.203125 9.601562 -0.0351562 11.101562 -0.0351562 L 23.191406 -0.0351562 C 23.496094 -0.0351562 24.175781 -0.136719 24.175781 -1.191406 L 24.175781 -4.9375 C 24.175781 -5.992188 23.496094 -6.09375 23.191406 -6.09375 Z M 23.222656 -28.128906 L 3.644531 -28.128906 C 3.371094 -28.128906 2.722656 -27.992188 2.722656 -26.902344 L 2.722656 -24.246094 C 2.722656 -23.191406 3.371094 -23.085938 3.644531 -23.085938 L 23.222656 -23.054688 C 23.496094 -23.054688 24.175781 -23.191406 24.175781 -24.246094 L 24.175781 -26.933594 C 24.175781 -27.992188 23.496094 -28.128906 23.222656 -28.128906 Z M 23.222656 -28.128906 "/></g></g></g><g fill="#000000" fill-opacity="1"><g transform="translate(26.522358, 285.547905)"><g><path d="M 128.335938 -103.019531 C 128.511719 -104.605469 128.6875 -106.1875 128.6875 -108.472656 L 128.6875 -114.097656 L 148.378906 -114.097656 L 148.378906 -126.578125 L 125.699219 -126.578125 L 125.699219 -127.984375 C 125.699219 -131.675781 125.171875 -134.667969 124.292969 -136.953125 L 139.941406 -136.953125 C 137.480469 -143.28125 132.378906 -144.863281 127.984375 -144.863281 L 31.46875 -144.863281 C 29.886719 -144.863281 26.371094 -144.335938 26.371094 -138.886719 L 26.371094 -136.953125 L 10.722656 -136.953125 L 10.722656 -126.578125 L 24.964844 -126.578125 L 24.964844 -124.820312 C 24.964844 -119.371094 28.480469 -118.84375 30.0625 -118.84375 L 113.394531 -118.84375 C 113.570312 -118.84375 113.921875 -118.667969 113.921875 -118.316406 L 113.921875 -114.097656 L 98.449219 -114.097656 L 98.449219 -112.867188 C 98.449219 -112.691406 98.449219 -112.515625 98.273438 -112.515625 L 75.246094 -95.8125 L 91.59375 -95.8125 L 72.957031 -82.453125 L 56.960938 -82.453125 L 45.710938 -74.367188 L 61.882812 -74.367188 L 46.941406 -63.640625 L 33.929688 -63.640625 L 19.867188 -53.445312 C 18.285156 -52.390625 17.054688 -51.335938 16 -50.28125 C 14.945312 -49.226562 14.238281 -47.820312 13.710938 -46.414062 C 13.183594 -45.007812 12.65625 -43.421875 12.480469 -41.488281 C 12.304688 -39.90625 12.128906 -37.972656 12.128906 -35.511719 L 12.128906 -35.335938 L 22.855469 -35.335938 L 22.855469 -30.765625 L 18.285156 -30.765625 L 18.285156 -30.589844 L 5.800781 -30.589844 L 5.800781 -17.582031 L 24.085938 -17.582031 L 24.085938 -16.703125 C 24.085938 -11.25 25.140625 -7.207031 27.25 -4.394531 C 27.25 -4.21875 27.425781 -4.21875 27.425781 -4.21875 L 14.0625 -4.21875 C 16.175781 -1.40625 19.691406 0 24.261719 0 L 120.777344 0 C 122.007812 0 124.820312 -0.351562 125.523438 -4.21875 L 138.886719 -4.21875 C 139.0625 -4.746094 139.0625 -5.273438 139.0625 -5.976562 L 139.0625 -17.582031 L 127.105469 -17.582031 L 127.105469 -20.042969 C 127.105469 -25.492188 123.589844 -26.019531 122.007812 -26.019531 L 38.851562 -26.019531 C 38.5 -26.019531 38.324219 -26.371094 38.324219 -26.546875 L 38.324219 -30.589844 L 44.300781 -30.589844 L 44.300781 -30.765625 L 63.816406 -30.765625 L 63.816406 -32.347656 C 63.816406 -32.523438 63.992188 -32.699219 63.992188 -32.699219 L 67.683594 -35.335938 L 42.191406 -35.335938 L 81.574219 -63.640625 L 94.582031 -63.640625 L 109.527344 -74.367188 L 93.351562 -74.367188 L 104.605469 -82.453125 L 120.601562 -82.453125 L 132.730469 -91.242188 C 134.316406 -92.296875 135.722656 -93.351562 136.601562 -94.40625 C 137.128906 -94.757812 137.480469 -95.285156 137.832031 -95.8125 L 125.699219 -95.8125 C 126.226562 -96.515625 126.753906 -97.394531 127.105469 -98.273438 C 127.632812 -99.679688 128.160156 -101.261719 128.335938 -103.019531 Z M 61.53125 -89.660156 L 32.347656 -89.660156 L 32.347656 -93.175781 L 61.53125 -93.175781 Z M 93.878906 -37.972656 L 64.695312 -37.972656 L 64.695312 -41.3125 L 93.878906 -41.3125 Z M 116.734375 -50.457031 L 87.550781 -50.457031 L 87.550781 -53.972656 L 116.734375 -53.972656 Z M 81.925781 -108.296875 L 50.105469 -108.296875 L 50.105469 -111.109375 L 81.925781 -111.109375 Z M 81.925781 -108.296875 "/></g></g></g><g fill="#a6a6a6" fill-opacity="1"><g transform="translate(24.26436, 283.007654)"><g><path d="M 128.335938 -103.019531 C 128.511719 -104.605469 128.6875 -106.1875 128.6875 -108.472656 L 128.6875 -114.097656 L 148.378906 -114.097656 L 148.378906 -126.578125 L 125.699219 -126.578125 L 125.699219 -127.984375 C 125.699219 -131.675781 125.171875 -134.667969 124.292969 -136.953125 L 139.941406 -136.953125 C 137.480469 -143.28125 132.378906 -144.863281 127.984375 -144.863281 L 31.46875 -144.863281 C 29.886719 -144.863281 26.371094 -144.335938 26.371094 -138.886719 L 26.371094 -136.953125 L 10.722656 -136.953125 L 10.722656 -126.578125 L 24.964844 -126.578125 L 24.964844 -124.820312 C 24.964844 -119.371094 28.480469 -118.84375 30.0625 -118.84375 L 113.394531 -118.84375 C 113.570312 -118.84375 113.921875 -118.667969 113.921875 -118.316406 L 113.921875 -114.097656 L 98.449219 -114.097656 L 98.449219 -112.867188 C 98.449219 -112.691406 98.449219 -112.515625 98.273438 -112.515625 L 75.246094 -95.8125 L 91.59375 -95.8125 L 72.957031 -82.453125 L 56.960938 -82.453125 L 45.710938 -74.367188 L 61.882812 -74.367188 L 46.941406 -63.640625 L 33.929688 -63.640625 L 19.867188 -53.445312 C 18.285156 -52.390625 17.054688 -51.335938 16 -50.28125 C 14.945312 -49.226562 14.238281 -47.820312 13.710938 -46.414062 C 13.183594 -45.007812 12.65625 -43.421875 12.480469 -41.488281 C 12.304688 -39.90625 12.128906 -37.972656 12.128906 -35.511719 L 12.128906 -35.335938 L 22.855469 -35.335938 L 22.855469 -30.765625 L 18.285156 -30.765625 L 18.285156 -30.589844 L 5.800781 -30.589844 L 5.800781 -17.582031 L 24.085938 -17.582031 L 24.085938 -16.703125 C 24.085938 -11.25 25.140625 -7.207031 27.25 -4.394531 C 27.25 -4.21875 27.425781 -4.21875 27.425781 -4.21875 L 14.0625 -4.21875 C 16.175781 -1.40625 19.691406 0 24.261719 0 L 120.777344 0 C 122.007812 0 124.820312 -0.351562 125.523438 -4.21875 L 138.886719 -4.21875 C 139.0625 -4.746094 139.0625 -5.273438 139.0625 -5.976562 L 139.0625 -17.582031 L 127.105469 -17.582031 L 127.105469 -20.042969 C 127.105469 -25.492188 123.589844 -26.019531 122.007812 -26.019531 L 38.851562 -26.019531 C 38.5 -26.019531 38.324219 -26.371094 38.324219 -26.546875 L 38.324219 -30.589844 L 44.300781 -30.589844 L 44.300781 -30.765625 L 63.816406 -30.765625 L 63.816406 -32.347656 C 63.816406 -32.523438 63.992188 -32.699219 63.992188 -32.699219 L 67.683594 -35.335938 L 42.191406 -35.335938 L 81.574219 -63.640625 L 94.582031 -63.640625 L 109.527344 -74.367188 L 93.351562 -74.367188 L 104.605469 -82.453125 L 120.601562 -82.453125 L 132.730469 -91.242188 C 134.316406 -92.296875 135.722656 -93.351562 136.601562 -94.40625 C 137.128906 -94.757812 137.480469 -95.285156 137.832031 -95.8125 L 125.699219 -95.8125 C 126.226562 -96.515625 126.753906 -97.394531 127.105469 -98.273438 C 127.632812 -99.679688 128.160156 -101.261719 128.335938 -103.019531 Z M 61.53125 -89.660156 L 32.347656 -89.660156 L 32.347656 -93.175781 L 61.53125 -93.175781 Z M 93.878906 -37.972656 L 64.695312 -37.972656 L 64.695312 -41.3125 L 93.878906 -41.3125 Z M 116.734375 -50.457031 L 87.550781 -50.457031 L 87.550781 -53.972656 L 116.734375 -53.972656 Z M 81.925781 -108.296875 L 50.105469 -108.296875 L 50.105469 -111.109375 L 81.925781 -111.109375 Z M 81.925781 -108.296875 "/></g></g></g><g fill="#393e46" fill-opacity="1"><g transform="translate(25.427151, 284.452701)"><g><path d="M 128.335938 -103.019531 C 128.511719 -104.605469 128.6875 -106.1875 128.6875 -108.472656 L 128.6875 -114.097656 L 148.378906 -114.097656 L 148.378906 -126.578125 L 125.699219 -126.578125 L 125.699219 -127.984375 C 125.699219 -131.675781 125.171875 -134.667969 124.292969 -136.953125 L 139.941406 -136.953125 C 137.480469 -143.28125 132.378906 -144.863281 127.984375 -144.863281 L 31.46875 -144.863281 C 29.886719 -144.863281 26.371094 -144.335938 26.371094 -138.886719 L 26.371094 -136.953125 L 10.722656 -136.953125 L 10.722656 -126.578125 L 24.964844 -126.578125 L 24.964844 -124.820312 C 24.964844 -119.371094 28.480469 -118.84375 30.0625 -118.84375 L 113.394531 -118.84375 C 113.570312 -118.84375 113.921875 -118.667969 113.921875 -118.316406 L 113.921875 -114.097656 L 98.449219 -114.097656 L 98.449219 -112.867188 C 98.449219 -112.691406 98.449219 -112.515625 98.273438 -112.515625 L 75.246094 -95.8125 L 91.59375 -95.8125 L 72.957031 -82.453125 L 56.960938 -82.453125 L 45.710938 -74.367188 L 61.882812 -74.367188 L 46.941406 -63.640625 L 33.929688 -63.640625 L 19.867188 -53.445312 C 18.285156 -52.390625 17.054688 -51.335938 16 -50.28125 C 14.945312 -49.226562 14.238281 -47.820312 13.710938 -46.414062 C 13.183594 -45.007812 12.65625 -43.421875 12.480469 -41.488281 C 12.304688 -39.90625 12.128906 -37.972656 12.128906 -35.511719 L 12.128906 -35.335938 L 22.855469 -35.335938 L 22.855469 -30.765625 L 18.285156 -30.765625 L 18.285156 -30.589844 L 5.800781 -30.589844 L 5.800781 -17.582031 L 24.085938 -17.582031 L 24.085938 -16.703125 C 24.085938 -11.25 25.140625 -7.207031 27.25 -4.394531 C 27.25 -4.21875 27.425781 -4.21875 27.425781 -4.21875 L 14.0625 -4.21875 C 16.175781 -1.40625 19.691406 0 24.261719 0 L 120.777344 0 C 122.007812 0 124.820312 -0.351562 125.523438 -4.21875 L 138.886719 -4.21875 C 139.0625 -4.746094 139.0625 -5.273438 139.0625 -5.976562 L 139.0625 -17.582031 L 127.105469 -17.582031 L 127.105469 -20.042969 C 127.105469 -25.492188 123.589844 -26.019531 122.007812 -26.019531 L 38.851562 -26.019531 C 38.5 -26.019531 38.324219 -26.371094 38.324219 -26.546875 L 38.324219 -30.589844 L 44.300781 -30.589844 L 44.300781 -30.765625 L 63.816406 -30.765625 L 63.816406 -32.347656 C 63.816406 -32.523438 63.992188 -32.699219 63.992188 -32.699219 L 67.683594 -35.335938 L 42.191406 -35.335938 L 81.574219 -63.640625 L 94.582031 -63.640625 L 109.527344 -74.367188 L 93.351562 -74.367188 L 104.605469 -82.453125 L 120.601562 -82.453125 L 132.730469 -91.242188 C 134.316406 -92.296875 135.722656 -93.351562 136.601562 -94.40625 C 137.128906 -94.757812 137.480469 -95.285156 137.832031 -95.8125 L 125.699219 -95.8125 C 126.226562 -96.515625 126.753906 -97.394531 127.105469 -98.273438 C 127.632812 -99.679688 128.160156 -101.261719 128.335938 -103.019531 Z M 61.53125 -89.660156 L 32.347656 -89.660156 L 32.347656 -93.175781 L 61.53125 -93.175781 Z M 93.878906 -37.972656 L 64.695312 -37.972656 L 64.695312 -41.3125 L 93.878906 -41.3125 Z M 116.734375 -50.457031 L 87.550781 -50.457031 L 87.550781 -53.972656 L 116.734375 -53.972656 Z M 81.925781 -108.296875 L 50.105469 -108.296875 L 50.105469 -111.109375 L 81.925781 -111.109375 Z M 81.925781 -108.296875 "/></g></g></g><g fill="#32e0c4" fill-opacity="1"><g transform="translate(6.820181, 218.962155)"><g><path d="M 22.371094 -5.039062 L 11.304688 -5.039062 C 10.589844 -5.039062 10.011719 -5.109375 9.535156 -5.277344 C 9.125 -5.414062 8.785156 -5.652344 8.546875 -6.027344 C 8.273438 -6.402344 8.070312 -6.914062 7.96875 -7.527344 C 7.832031 -8.207031 7.796875 -9.058594 7.796875 -10.078125 L 7.796875 -26.867188 C 7.796875 -27.957031 7.117188 -28.058594 6.84375 -28.058594 L 3.710938 -28.058594 C 3.40625 -28.058594 2.722656 -27.957031 2.722656 -26.867188 L 2.722656 -10.660156 C 2.722656 -8.75 2.894531 -7.117188 3.199219 -5.789062 C 3.507812 -4.425781 3.984375 -3.304688 4.664062 -2.453125 C 5.347656 -1.566406 6.230469 -0.917969 7.320312 -0.542969 C 8.34375 -0.171875 9.636719 0.0351562 11.136719 0.0351562 L 22.371094 0.0351562 C 22.679688 0.0351562 23.324219 -0.101562 23.324219 -1.15625 L 23.324219 -3.847656 C 23.324219 -4.902344 22.679688 -5.039062 22.371094 -5.039062 Z M 22.371094 -5.039062 "/></g></g></g><g fill="#32e0c4" fill-opacity="1"><g transform="translate(34.568766, 218.962155)"><g><path d="M 6.808594 -28.058594 L 3.675781 -28.058594 C 3.40625 -28.058594 2.722656 -27.921875 2.722656 -26.867188 L 2.722656 -1.15625 C 2.722656 -0.101562 3.40625 0.0351562 3.675781 0.0351562 L 6.808594 0.0351562 C 7.082031 0.0351562 7.765625 -0.101562 7.765625 -1.15625 L 7.765625 -26.867188 C 7.765625 -27.921875 7.082031 -28.058594 6.808594 -28.058594 Z M 6.808594 -28.058594 "/></g></g></g><g fill="#32e0c4" fill-opacity="1"><g transform="translate(46.757717, 218.962155)"><g><path d="M 26.253906 -28.058594 L 3.710938 -28.058594 C 3.40625 -28.058594 2.722656 -27.957031 2.722656 -26.902344 L 2.722656 -24.246094 C 2.722656 -23.121094 3.40625 -23.019531 3.710938 -23.019531 L 12.464844 -23.019531 L 12.464844 -1.15625 C 12.464844 -0.101562 13.144531 0 13.417969 0 L 16.550781 0 C 16.855469 0 17.503906 -0.101562 17.503906 -1.15625 L 17.503906 -23.019531 L 26.253906 -23.019531 C 26.5625 -23.019531 27.242188 -23.121094 27.242188 -24.246094 L 27.242188 -26.902344 C 27.242188 -27.957031 26.5625 -28.058594 26.253906 -28.058594 Z M 26.253906 -28.058594 "/></g></g></g><g fill="#32e0c4" fill-opacity="1"><g transform="translate(78.421747, 218.962155)"><g><path d="M 24.722656 -28.058594 L 21.589844 -28.058594 C 21.316406 -28.058594 20.667969 -27.921875 20.667969 -26.867188 L 20.667969 -16.6875 L 7.765625 -16.6875 L 7.765625 -26.867188 C 7.765625 -27.921875 7.117188 -28.058594 6.808594 -28.058594 L 3.710938 -28.058594 C 3.40625 -28.058594 2.722656 -27.921875 2.722656 -26.867188 L 2.722656 -1.15625 C 2.722656 -0.101562 3.40625 0.0351562 3.710938 0.0351562 L 6.808594 0.0351562 C 7.117188 0.0351562 7.765625 -0.101562 7.765625 -1.15625 L 7.765625 -11.644531 L 20.667969 -11.644531 L 20.667969 -1.15625 C 20.667969 -0.101562 21.316406 0.0351562 21.589844 0.0351562 L 24.722656 0.0351562 C 25.027344 0.0351562 25.710938 -0.101562 25.710938 -1.15625 L 25.710938 -26.867188 C 25.710938 -27.921875 25.027344 -28.058594 24.722656 -28.058594 Z M 24.722656 -28.058594 "/></g></g></g><g fill="#32e0c4" fill-opacity="1"><g transform="translate(108.553647, 218.962155)"><g><path d="M 26.253906 -28.058594 L 3.710938 -28.058594 C 3.40625 -28.058594 2.722656 -27.957031 2.722656 -26.902344 L 2.722656 -24.246094 C 2.722656 -23.121094 3.40625 -23.019531 3.710938 -23.019531 L 12.464844 -23.019531 L 12.464844 -1.15625 C 12.464844 -0.101562 13.144531 0 13.417969 0 L 16.550781 0 C 16.855469 0 17.503906 -0.101562 17.503906 -1.15625 L 17.503906 -23.019531 L 26.253906 -23.019531 C 26.5625 -23.019531 27.242188 -23.121094 27.242188 -24.246094 L 27.242188 -26.902344 C 27.242188 -27.957031 26.5625 -28.058594 26.253906 -28.058594 Z M 26.253906 -28.058594 "/></g></g></g><g fill="#32e0c4" fill-opacity="1"><g transform="translate(140.217683, 218.962155)"><g><path d="M 22.371094 -5.039062 L 11.304688 -5.039062 C 10.589844 -5.039062 10.011719 -5.109375 9.535156 -5.277344 C 9.125 -5.414062 8.785156 -5.652344 8.546875 -6.027344 C 8.273438 -6.402344 8.070312 -6.914062 7.96875 -7.527344 C 7.832031 -8.207031 7.796875 -9.058594 7.796875 -10.078125 L 7.796875 -26.867188 C 7.796875 -27.957031 7.117188 -28.058594 6.84375 -28.058594 L 3.710938 -28.058594 C 3.40625 -28.058594 2.722656 -27.957031 2.722656 -26.867188 L 2.722656 -10.660156 C 2.722656 -8.75 2.894531 -7.117188 3.199219 -5.789062 C 3.507812 -4.425781 3.984375 -3.304688 4.664062 -2.453125 C 5.347656 -1.566406 6.230469 -0.917969 7.320312 -0.542969 C 8.34375 -0.171875 9.636719 0.0351562 11.136719 0.0351562 L 22.371094 0.0351562 C 22.679688 0.0351562 23.324219 -0.101562 23.324219 -1.15625 L 23.324219 -3.847656 C 23.324219 -4.902344 22.679688 -5.039062 22.371094 -5.039062 Z M 22.371094 -5.039062 "/></g></g></g><g fill="#32e0c4" fill-opacity="1"><g transform="translate(167.966274, 218.962155)"><g><path d="M 23.191406 -6.09375 L 11.203125 -6.09375 C 10.488281 -6.09375 9.910156 -6.199219 9.433594 -6.332031 C 8.988281 -6.503906 8.683594 -6.742188 8.410156 -7.082031 C 8.136719 -7.457031 7.933594 -7.96875 7.832031 -8.617188 C 7.796875 -8.785156 7.796875 -9.023438 7.765625 -9.195312 C 7.765625 -9.195312 7.796875 -11.644531 7.832031 -11.644531 L 23.054688 -11.644531 C 23.324219 -11.644531 24.007812 -11.78125 24.007812 -12.835938 L 24.007812 -15.527344 C 24.007812 -16.582031 23.324219 -16.6875 23.054688 -16.6875 L 5.484375 -16.652344 C 4.496094 -16.582031 3.644531 -16.074219 3.167969 -15.222656 C 2.996094 -14.949219 2.859375 -14.675781 2.792969 -14.371094 L 2.722656 -10.078125 L 2.722656 -9.910156 C 2.757812 -8.308594 2.929688 -6.945312 3.167969 -5.824219 C 3.472656 -4.460938 3.984375 -3.335938 4.632812 -2.484375 C 5.3125 -1.601562 6.199219 -0.988281 7.289062 -0.613281 C 8.34375 -0.203125 9.601562 -0.0351562 11.101562 -0.0351562 L 23.191406 -0.0351562 C 23.496094 -0.0351562 24.175781 -0.136719 24.175781 -1.191406 L 24.175781 -4.9375 C 24.175781 -5.992188 23.496094 -6.09375 23.191406 -6.09375 Z M 23.222656 -28.128906 L 3.644531 -28.128906 C 3.371094 -28.128906 2.722656 -27.992188 2.722656 -26.902344 L 2.722656 -24.246094 C 2.722656 -23.191406 3.371094 -23.085938 3.644531 -23.085938 L 23.222656 -23.054688 C 23.496094 -23.054688 24.175781 -23.191406 24.175781 -24.246094 L 24.175781 -26.933594 C 24.175781 -27.992188 23.496094 -28.128906 23.222656 -28.128906 Z M 23.222656 -28.128906 "/></g></g></g><g fill="#32e0c4" fill-opacity="1"><g transform="translate(322.44766, 165.897006)"><g><path d="M 57.378906 -56.625 C 55.871094 -58.507812 53.910156 -59.941406 51.496094 -60.847656 C 49.160156 -61.675781 46.296875 -62.128906 42.976562 -62.128906 L 24.578125 -62.128906 C 21.261719 -62.128906 18.472656 -61.675781 16.136719 -60.847656 C 13.722656 -59.941406 11.761719 -58.507812 10.253906 -56.625 C 8.820312 -54.738281 7.691406 -52.25 7.011719 -49.234375 C 6.332031 -46.296875 6.03125 -42.75 6.03125 -38.527344 L 6.03125 -23.601562 C 6.03125 -19.378906 6.332031 -15.757812 7.011719 -12.816406 C 7.691406 -9.800781 8.820312 -7.3125 10.253906 -5.429688 C 11.761719 -3.46875 13.722656 -2.035156 16.136719 -1.207031 C 18.398438 -0.378906 21.261719 0.0742188 24.578125 0.0742188 L 42.976562 0.0742188 C 46.296875 0.0742188 49.160156 -0.378906 51.496094 -1.207031 C 53.910156 -2.035156 55.871094 -3.46875 57.378906 -5.351562 C 58.886719 -7.3125 59.941406 -9.800781 60.621094 -12.816406 C 61.222656 -15.757812 61.601562 -19.378906 61.601562 -23.601562 L 61.601562 -38.527344 C 61.601562 -42.675781 61.222656 -46.296875 60.621094 -49.234375 C 59.941406 -52.25 58.886719 -54.738281 57.378906 -56.625 Z M 50.367188 -39.8125 L 50.367188 -22.242188 C 50.367188 -20.054688 50.292969 -18.171875 49.988281 -16.664062 C 49.761719 -15.304688 49.3125 -14.097656 48.707031 -13.34375 C 48.179688 -12.515625 47.425781 -11.988281 46.445312 -11.6875 C 45.464844 -11.308594 44.183594 -11.160156 42.601562 -11.160156 L 24.957031 -11.160156 C 23.375 -11.160156 22.09375 -11.308594 21.113281 -11.6875 C 20.132812 -11.988281 19.378906 -12.515625 18.851562 -13.34375 C 18.246094 -14.097656 17.871094 -15.304688 17.566406 -16.664062 C 17.339844 -18.171875 17.191406 -20.054688 17.191406 -22.242188 L 17.191406 -39.8125 C 17.191406 -41.996094 17.339844 -43.882812 17.566406 -45.390625 C 17.871094 -46.824219 18.246094 -47.953125 18.851562 -48.78125 C 19.378906 -49.539062 20.132812 -50.066406 21.113281 -50.441406 C 22.09375 -50.742188 23.375 -50.96875 24.957031 -50.96875 L 42.601562 -50.96875 C 44.183594 -50.96875 45.464844 -50.742188 46.445312 -50.441406 C 47.425781 -50.066406 48.179688 -49.539062 48.707031 -48.78125 C 49.3125 -47.953125 49.761719 -46.824219 49.988281 -45.390625 C 50.292969 -43.882812 50.367188 -41.996094 50.367188 -39.8125 Z M 50.367188 -39.8125 "/></g></g></g><g fill="#32e0c4" fill-opacity="1"><g transform="translate(393.839944, 165.897006)"><g><path d="M 57.378906 -56.625 C 55.871094 -58.507812 53.910156 -59.941406 51.496094 -60.847656 C 49.160156 -61.675781 46.296875 -62.128906 42.976562 -62.128906 L 24.578125 -62.128906 C 21.261719 -62.128906 18.472656 -61.675781 16.136719 -60.847656 C 13.722656 -59.941406 11.761719 -58.507812 10.253906 -56.625 C 8.820312 -54.738281 7.691406 -52.25 7.011719 -49.234375 C 6.332031 -46.296875 6.03125 -42.75 6.03125 -38.527344 L 6.03125 -23.601562 C 6.03125 -19.378906 6.332031 -15.757812 7.011719 -12.816406 C 7.691406 -9.800781 8.820312 -7.3125 10.253906 -5.429688 C 11.761719 -3.46875 13.722656 -2.035156 16.136719 -1.207031 C 18.398438 -0.378906 21.261719 0.0742188 24.578125 0.0742188 L 42.976562 0.0742188 C 46.296875 0.0742188 49.160156 -0.378906 51.496094 -1.207031 C 53.910156 -2.035156 55.871094 -3.46875 57.378906 -5.351562 C 58.886719 -7.3125 59.941406 -9.800781 60.621094 -12.816406 C 61.222656 -15.757812 61.601562 -19.378906 61.601562 -23.601562 L 61.601562 -38.527344 C 61.601562 -42.675781 61.222656 -46.296875 60.621094 -49.234375 C 59.941406 -52.25 58.886719 -54.738281 57.378906 -56.625 Z M 50.367188 -39.8125 L 50.367188 -22.242188 C 50.367188 -20.054688 50.292969 -18.171875 49.988281 -16.664062 C 49.761719 -15.304688 49.3125 -14.097656 48.707031 -13.34375 C 48.179688 -12.515625 47.425781 -11.988281 46.445312 -11.6875 C 45.464844 -11.308594 44.183594 -11.160156 42.601562 -11.160156 L 24.957031 -11.160156 C 23.375 -11.160156 22.09375 -11.308594 21.113281 -11.6875 C 20.132812 -11.988281 19.378906 -12.515625 18.851562 -13.34375 C 18.246094 -14.097656 17.871094 -15.304688 17.566406 -16.664062 C 17.339844 -18.171875 17.191406 -20.054688 17.191406 -22.242188 L 17.191406 -39.8125 C 17.191406 -41.996094 17.339844 -43.882812 17.566406 -45.390625 C 17.871094 -46.824219 18.246094 -47.953125 18.851562 -48.78125 C 19.378906 -49.539062 20.132812 -50.066406 21.113281 -50.441406 C 22.09375 -50.742188 23.375 -50.96875 24.957031 -50.96875 L 42.601562 -50.96875 C 44.183594 -50.96875 45.464844 -50.742188 46.445312 -50.441406 C 47.425781 -50.066406 48.179688 -49.539062 48.707031 -48.78125 C 49.3125 -47.953125 49.761719 -46.824219 49.988281 -45.390625 C 50.292969 -43.882812 50.367188 -41.996094 50.367188 -39.8125 Z M 50.367188 -39.8125 "/></g></g></g><g fill="#32e0c4" fill-opacity="1"><g transform="translate(465.232229, 165.897006)"><g><path d="M 42.976562 -62.128906 L 8.144531 -62.128906 C 7.539062 -62.128906 6.03125 -61.902344 6.03125 -59.488281 L 6.03125 -53.535156 C 6.03125 -51.195312 7.539062 -50.96875 8.144531 -50.96875 L 41.015625 -50.96875 C 42.902344 -50.96875 44.257812 -50.441406 45.011719 -49.3125 C 45.84375 -48.179688 46.21875 -46.371094 46.21875 -43.882812 C 46.21875 -41.394531 45.84375 -39.585938 45.011719 -38.453125 C 44.257812 -37.324219 42.902344 -36.792969 41.015625 -36.792969 L 8.144531 -36.792969 C 7.539062 -36.792969 6.03125 -36.570312 6.03125 -34.230469 L 6.03125 -2.5625 C 6.03125 -0.226562 7.539062 0.0742188 8.144531 0.0742188 L 15.078125 0.0742188 C 15.683594 0.0742188 17.191406 -0.226562 17.191406 -2.5625 L 17.191406 -25.636719 L 42.976562 -25.710938 C 48.105469 -25.710938 51.800781 -27.292969 54.0625 -30.460938 C 56.324219 -33.628906 57.378906 -38.152344 57.378906 -44.109375 L 57.378906 -43.65625 C 57.378906 -49.6875 56.324219 -54.210938 54.0625 -57.304688 C 51.800781 -60.546875 48.105469 -62.128906 42.976562 -62.128906 Z M 42.976562 -62.128906 "/></g></g></g><g fill="#32e0c4" fill-opacity="1"><g transform="translate(532.402791, 165.897006)"><g><path d="M 42.449219 -37.097656 L 19.828125 -37.097656 C 18.699219 -37.097656 17.265625 -37.546875 17.265625 -41.242188 L 17.265625 -46.824219 C 17.265625 -48.179688 17.492188 -49.234375 17.871094 -49.988281 C 18.171875 -50.441406 18.625 -50.96875 19.90625 -50.96875 L 50.59375 -50.96875 C 51.195312 -50.96875 52.703125 -51.195312 52.703125 -53.535156 L 52.703125 -59.566406 C 52.703125 -61.902344 51.195312 -62.128906 50.59375 -62.128906 L 18.097656 -62.128906 C 13.949219 -62.128906 10.933594 -60.773438 8.972656 -57.980469 C 7.011719 -55.265625 6.03125 -51.648438 6.03125 -47.273438 L 6.03125 -41.542969 C 6.03125 -36.34375 7.085938 -32.121094 8.972656 -29.480469 C 11.308594 -26.390625 14.777344 -25.9375 17.945312 -25.9375 L 40.566406 -25.9375 C 41.695312 -25.9375 43.203125 -25.484375 43.203125 -21.789062 L 43.203125 -15.304688 C 43.203125 -13.949219 42.976562 -12.894531 42.523438 -12.140625 C 42.222656 -11.6875 41.769531 -11.160156 40.488281 -11.160156 L 8.292969 -11.160156 C 7.617188 -11.160156 6.105469 -10.933594 6.105469 -8.59375 L 6.105469 -2.5625 C 6.105469 -0.226562 7.617188 0 8.292969 0 L 42.296875 0 C 46.445312 0 49.539062 -1.433594 51.496094 -4.222656 C 53.382812 -6.9375 54.363281 -10.480469 54.363281 -14.855469 L 54.363281 -21.488281 C 54.363281 -26.390625 53.382812 -30.234375 51.421875 -32.949219 C 49.386719 -35.664062 46.371094 -37.097656 42.449219 -37.097656 Z M 42.449219 -37.097656 "/></g></g></g><g fill="#32e0c4" fill-opacity="1"><g transform="translate(596.557842, 165.897006)"><g><path d="M 13.875 -10.859375 L 8.972656 -10.859375 C 7.3125 -10.859375 6.03125 -9.574219 6.03125 -7.917969 L 6.03125 -3.015625 C 6.03125 -1.433594 7.3125 -0.0742188 8.972656 -0.0742188 L 11.160156 -0.0742188 L 11.160156 5.277344 C 11.160156 6.257812 11.914062 7.011719 12.894531 7.011719 C 13.648438 7.011719 14.324219 6.484375 14.550781 5.730469 L 16.585938 -2.035156 C 16.738281 -2.335938 16.8125 -2.714844 16.8125 -3.015625 L 16.8125 -7.917969 C 16.8125 -9.574219 15.457031 -10.859375 13.875 -10.859375 Z M 13.875 -10.859375 "/></g></g></g><g fill="#32e0c4" fill-opacity="1"><g transform="translate(472.814507, 271.426858)"><g/></g></g><g fill="#a6a6a6" fill-opacity="1"><g transform="translate(281.442821, 237.288421)"><g><path d="M 24.625 -21.519531 L 11.503906 -21.519531 C 10.847656 -21.519531 10.015625 -21.78125 10.015625 -23.925781 L 10.015625 -27.164062 C 10.015625 -27.949219 10.148438 -28.5625 10.367188 -29 C 10.542969 -29.261719 10.804688 -29.566406 11.546875 -29.566406 L 29.347656 -29.566406 C 29.699219 -29.566406 30.574219 -29.699219 30.574219 -31.054688 L 30.574219 -34.554688 C 30.574219 -35.910156 29.699219 -36.042969 29.347656 -36.042969 L 10.496094 -36.042969 C 8.09375 -36.042969 6.34375 -35.253906 5.203125 -33.636719 C 4.066406 -32.0625 3.5 -29.960938 3.5 -27.425781 L 3.5 -24.101562 C 3.5 -21.082031 4.113281 -18.632812 5.203125 -17.101562 C 6.5625 -15.308594 8.574219 -15.046875 10.410156 -15.046875 L 23.53125 -15.046875 C 24.1875 -15.046875 25.0625 -14.785156 25.0625 -12.640625 L 25.0625 -8.878906 C 25.0625 -8.09375 24.929688 -7.480469 24.667969 -7.042969 C 24.496094 -6.78125 24.230469 -6.472656 23.488281 -6.472656 L 4.8125 -6.472656 C 4.417969 -6.472656 3.542969 -6.34375 3.542969 -4.984375 L 3.542969 -1.488281 C 3.542969 -0.132812 4.417969 0 4.8125 0 L 24.539062 0 C 26.945312 0 28.738281 -0.832031 29.875 -2.449219 C 30.96875 -4.023438 31.535156 -6.078125 31.535156 -8.617188 L 31.535156 -12.464844 C 31.535156 -15.308594 30.96875 -17.539062 29.832031 -19.113281 C 28.648438 -20.6875 26.898438 -21.519531 24.625 -21.519531 Z M 24.625 -21.519531 "/></g></g></g><g fill="#a6a6a6" fill-opacity="1"><g transform="translate(318.660193, 237.288421)"><g><path d="M 33.285156 -32.847656 C 32.410156 -33.941406 31.273438 -34.773438 29.875 -35.296875 C 28.519531 -35.777344 26.855469 -36.042969 24.929688 -36.042969 L 14.257812 -36.042969 C 12.335938 -36.042969 10.714844 -35.777344 9.359375 -35.296875 C 7.960938 -34.773438 6.824219 -33.941406 5.949219 -32.847656 C 5.117188 -31.753906 4.460938 -30.3125 4.066406 -28.5625 C 3.675781 -26.855469 3.5 -24.800781 3.5 -22.351562 L 3.5 -13.691406 C 3.5 -11.242188 3.675781 -9.140625 4.066406 -7.4375 C 4.460938 -5.6875 5.117188 -4.242188 5.949219 -3.148438 C 6.824219 -2.011719 7.960938 -1.179688 9.359375 -0.699219 C 10.671875 -0.21875 12.335938 0.0429688 14.257812 0.0429688 L 24.929688 0.0429688 C 26.855469 0.0429688 28.519531 -0.21875 29.875 -0.699219 C 31.273438 -1.179688 32.410156 -2.011719 33.285156 -3.105469 C 34.160156 -4.242188 34.773438 -5.6875 35.167969 -7.4375 C 35.515625 -9.140625 35.734375 -11.242188 35.734375 -13.691406 L 35.734375 -22.351562 C 35.734375 -24.757812 35.515625 -26.855469 35.167969 -28.5625 C 34.773438 -30.3125 34.160156 -31.753906 33.285156 -32.847656 Z M 29.21875 -23.09375 L 29.21875 -12.902344 C 29.21875 -11.632812 29.175781 -10.542969 29 -9.667969 C 28.867188 -8.878906 28.605469 -8.179688 28.253906 -7.742188 C 27.949219 -7.261719 27.511719 -6.953125 26.945312 -6.78125 C 26.375 -6.5625 25.632812 -6.472656 24.710938 -6.472656 L 14.476562 -6.472656 C 13.558594 -6.472656 12.816406 -6.5625 12.246094 -6.78125 C 11.679688 -6.953125 11.242188 -7.261719 10.933594 -7.742188 C 10.585938 -8.179688 10.367188 -8.878906 10.191406 -9.667969 C 10.058594 -10.542969 9.972656 -11.632812 9.972656 -12.902344 L 9.972656 -23.09375 C 9.972656 -24.363281 10.058594 -25.457031 10.191406 -26.332031 C 10.367188 -27.164062 10.585938 -27.816406 10.933594 -28.300781 C 11.242188 -28.738281 11.679688 -29.042969 12.246094 -29.261719 C 12.816406 -29.4375 13.558594 -29.566406 14.476562 -29.566406 L 24.710938 -29.566406 C 25.632812 -29.566406 26.375 -29.4375 26.945312 -29.261719 C 27.511719 -29.042969 27.949219 -28.738281 28.253906 -28.300781 C 28.605469 -27.816406 28.867188 -27.164062 29 -26.332031 C 29.175781 -25.457031 29.21875 -24.363281 29.21875 -23.09375 Z M 29.21875 -23.09375 "/></g></g></g><g fill="#a6a6a6" fill-opacity="1"><g transform="translate(360.075994, 237.288421)"><g><path d="M 40.023438 -36.042969 L 36.085938 -36.042969 C 35.472656 -36.042969 34.992188 -35.996094 34.554688 -35.867188 C 34.117188 -35.734375 33.722656 -35.515625 33.375 -35.210938 C 33.066406 -34.859375 32.761719 -34.464844 32.5 -33.941406 C 32.234375 -33.417969 32.015625 -32.761719 31.753906 -31.929688 L 24.011719 -12.597656 C 23.96875 -12.421875 23.925781 -12.421875 23.882812 -12.421875 L 23.445312 -12.421875 C 23.445312 -12.421875 23.355469 -12.421875 23.3125 -12.597656 L 15.613281 -31.929688 C 15.351562 -32.761719 15.089844 -33.417969 14.871094 -33.941406 C 14.609375 -34.464844 14.304688 -34.859375 13.996094 -35.210938 C 13.648438 -35.515625 13.210938 -35.734375 12.773438 -35.867188 C 12.335938 -35.996094 11.808594 -36.042969 11.242188 -36.042969 L 7.21875 -36.042969 C 5.730469 -36.042969 4.722656 -35.558594 4.199219 -34.640625 C 3.71875 -33.8125 3.5 -32.410156 3.5 -30.398438 L 3.5 -1.488281 C 3.5 -0.132812 4.375 0.0429688 4.769531 0.0429688 L 8.527344 0.0429688 C 8.921875 0.0429688 9.753906 -0.132812 9.753906 -1.488281 L 9.753906 -27.773438 C 9.753906 -27.816406 9.753906 -27.863281 9.753906 -27.863281 L 9.972656 -27.863281 C 10.015625 -27.863281 10.058594 -27.863281 10.105469 -27.730469 L 17.582031 -9.230469 C 17.890625 -8.308594 18.195312 -7.523438 18.5 -6.867188 C 18.851562 -6.210938 19.203125 -5.6875 19.550781 -5.25 C 19.988281 -4.8125 20.425781 -4.460938 20.953125 -4.285156 C 21.476562 -4.113281 22.042969 -4.023438 22.699219 -4.023438 L 24.496094 -4.023438 C 25.148438 -4.023438 25.761719 -4.113281 26.242188 -4.285156 C 26.769531 -4.460938 27.25 -4.8125 27.644531 -5.25 C 27.992188 -5.6875 28.386719 -6.210938 28.691406 -6.867188 C 29 -7.523438 29.304688 -8.308594 29.613281 -9.230469 L 37.136719 -27.773438 C 37.136719 -27.863281 37.179688 -27.863281 37.222656 -27.863281 L 37.441406 -27.863281 C 37.441406 -27.863281 37.441406 -27.816406 37.441406 -27.773438 L 37.441406 -1.488281 C 37.441406 -0.132812 38.316406 0.0429688 38.664062 0.0429688 L 42.425781 0.0429688 C 42.820312 0.0429688 43.695312 -0.132812 43.695312 -1.488281 L 43.695312 -30.398438 C 43.695312 -32.410156 43.476562 -33.8125 42.996094 -34.640625 C 42.472656 -35.558594 41.464844 -36.042969 40.023438 -36.042969 Z M 40.023438 -36.042969 "/></g></g></g><g fill="#a6a6a6" fill-opacity="1"><g transform="translate(409.451331, 237.288421)"><g><path d="M 29.785156 -7.828125 L 14.390625 -7.828125 C 13.472656 -7.828125 12.726562 -7.960938 12.117188 -8.136719 C 11.546875 -8.355469 11.152344 -8.660156 10.804688 -9.097656 C 10.453125 -9.578125 10.191406 -10.234375 10.058594 -11.066406 C 10.015625 -11.285156 10.015625 -11.589844 9.972656 -11.808594 C 9.972656 -11.808594 10.015625 -14.957031 10.058594 -14.957031 L 29.613281 -14.957031 C 29.960938 -14.957031 30.835938 -15.132812 30.835938 -16.488281 L 30.835938 -19.945312 C 30.835938 -21.300781 29.960938 -21.433594 29.613281 -21.433594 L 7.042969 -21.386719 C 5.773438 -21.300781 4.679688 -20.644531 4.066406 -19.550781 C 3.847656 -19.203125 3.675781 -18.851562 3.585938 -18.457031 L 3.5 -12.945312 L 3.5 -12.726562 C 3.542969 -10.671875 3.761719 -8.921875 4.066406 -7.480469 C 4.460938 -5.730469 5.117188 -4.285156 5.949219 -3.191406 C 6.824219 -2.054688 7.960938 -1.269531 9.359375 -0.789062 C 10.714844 -0.261719 12.335938 -0.0429688 14.257812 -0.0429688 L 29.785156 -0.0429688 C 30.179688 -0.0429688 31.054688 -0.175781 31.054688 -1.53125 L 31.054688 -6.34375 C 31.054688 -7.699219 30.179688 -7.828125 29.785156 -7.828125 Z M 29.832031 -36.128906 L 4.679688 -36.128906 C 4.332031 -36.128906 3.5 -35.953125 3.5 -34.554688 L 3.5 -31.140625 C 3.5 -29.785156 4.332031 -29.65625 4.679688 -29.65625 L 29.832031 -29.613281 C 30.179688 -29.613281 31.054688 -29.785156 31.054688 -31.140625 L 31.054688 -34.597656 C 31.054688 -35.953125 30.179688 -36.128906 29.832031 -36.128906 Z M 29.832031 -36.128906 "/></g></g></g><g fill="#a6a6a6" fill-opacity="1"><g transform="translate(446.187633, 237.288421)"><g><path d="M 33.722656 -36.042969 L 4.769531 -36.042969 C 4.375 -36.042969 3.5 -35.910156 3.5 -34.554688 L 3.5 -31.140625 C 3.5 -29.699219 4.375 -29.566406 4.769531 -29.566406 L 16.007812 -29.566406 L 16.007812 -1.488281 C 16.007812 -0.132812 16.882812 0 17.234375 0 L 21.257812 0 C 21.652344 0 22.480469 -0.132812 22.480469 -1.488281 L 22.480469 -29.566406 L 33.722656 -29.566406 C 34.117188 -29.566406 34.992188 -29.699219 34.992188 -31.140625 L 34.992188 -34.554688 C 34.992188 -35.910156 34.117188 -36.042969 33.722656 -36.042969 Z M 33.722656 -36.042969 "/></g></g></g><g fill="#a6a6a6" fill-opacity="1"><g transform="translate(486.859957, 237.288421)"><g><path d="M 31.753906 -36.042969 L 27.730469 -36.042969 C 27.382812 -36.042969 26.550781 -35.867188 26.550781 -34.511719 L 26.550781 -21.433594 L 9.972656 -21.433594 L 9.972656 -34.511719 C 9.972656 -35.867188 9.140625 -36.042969 8.746094 -36.042969 L 4.769531 -36.042969 C 4.375 -36.042969 3.5 -35.867188 3.5 -34.511719 L 3.5 -1.488281 C 3.5 -0.132812 4.375 0.0429688 4.769531 0.0429688 L 8.746094 0.0429688 C 9.140625 0.0429688 9.972656 -0.132812 9.972656 -1.488281 L 9.972656 -14.957031 L 26.550781 -14.957031 L 26.550781 -1.488281 C 26.550781 -0.132812 27.382812 0.0429688 27.730469 0.0429688 L 31.753906 0.0429688 C 32.148438 0.0429688 33.023438 -0.132812 33.023438 -1.488281 L 33.023438 -34.511719 C 33.023438 -35.867188 32.148438 -36.042969 31.753906 -36.042969 Z M 31.753906 -36.042969 "/></g></g></g><g fill="#a6a6a6" fill-opacity="1"><g transform="translate(525.564275, 237.288421)"><g><path d="M 8.746094 -36.042969 L 4.722656 -36.042969 C 4.375 -36.042969 3.5 -35.867188 3.5 -34.511719 L 3.5 -1.488281 C 3.5 -0.132812 4.375 0.0429688 4.722656 0.0429688 L 8.746094 0.0429688 C 9.097656 0.0429688 9.972656 -0.132812 9.972656 -1.488281 L 9.972656 -34.511719 C 9.972656 -35.867188 9.097656 -36.042969 8.746094 -36.042969 Z M 8.746094 -36.042969 "/></g></g></g><g fill="#a6a6a6" fill-opacity="1"><g transform="translate(541.220928, 237.288421)"><g><path d="M 34.464844 -36.042969 L 30.574219 -36.042969 C 30.179688 -36.042969 29.347656 -35.910156 29.347656 -34.511719 L 29.347656 -8.222656 C 29.347656 -8.179688 29.347656 -8.179688 29.347656 -8.136719 L 29.128906 -8.136719 C 29.085938 -8.136719 29.042969 -8.136719 29 -8.265625 L 15.175781 -32.847656 C 14.828125 -33.503906 14.523438 -34.03125 14.214844 -34.421875 C 13.910156 -34.859375 13.601562 -35.210938 13.296875 -35.429688 C 12.945312 -35.691406 12.554688 -35.867188 12.070312 -35.953125 C 11.632812 -35.996094 11.109375 -36.042969 10.542969 -36.042969 L 7.261719 -36.042969 C 5.992188 -36.042969 5.03125 -35.605469 4.417969 -34.816406 C 3.804688 -33.984375 3.5 -32.542969 3.5 -30.398438 L 3.5 -1.488281 C 3.5 -0.132812 4.375 0.0429688 4.769531 0.0429688 L 8.660156 0.0429688 C 9.054688 0.0429688 9.886719 -0.132812 9.886719 -1.488281 L 9.886719 -27.773438 C 9.886719 -27.816406 9.886719 -27.863281 9.886719 -27.863281 L 10.105469 -27.863281 C 10.105469 -27.863281 10.148438 -27.863281 10.234375 -27.730469 L 24.101562 -3.148438 C 24.449219 -2.449219 24.800781 -1.925781 25.105469 -1.53125 C 25.414062 -1.09375 25.71875 -0.789062 26.070312 -0.570312 C 26.417969 -0.304688 26.8125 -0.175781 27.25 -0.0859375 C 27.644531 0 28.125 0.0429688 28.738281 0.0429688 L 31.929688 0.0429688 C 33.199219 0.0429688 34.160156 -0.394531 34.773438 -1.226562 C 35.386719 -2.011719 35.691406 -3.457031 35.691406 -5.597656 L 35.691406 -34.511719 C 35.691406 -35.910156 34.816406 -36.042969 34.464844 -36.042969 Z M 34.464844 -36.042969 "/></g></g></g><g fill="#a6a6a6" fill-opacity="1"><g transform="translate(582.593012, 237.288421)"><g><path d="M 33.109375 -36.042969 L 14.304688 -36.042969 C 12.378906 -36.042969 10.714844 -35.777344 9.359375 -35.296875 C 8.003906 -34.773438 6.824219 -33.941406 5.992188 -32.847656 C 5.117188 -31.710938 4.460938 -30.3125 4.066406 -28.5625 C 3.675781 -26.855469 3.5 -24.757812 3.5 -22.351562 L 3.5 -13.691406 C 3.5 -11.242188 3.675781 -9.140625 4.066406 -7.390625 C 4.460938 -5.6875 5.117188 -4.242188 5.992188 -3.105469 C 6.867188 -2.011719 8.003906 -1.179688 9.359375 -0.699219 C 10.714844 -0.21875 12.378906 0.0429688 14.304688 0.0429688 L 29.261719 0.0429688 C 30.878906 0.0429688 32.148438 -0.613281 33.023438 -1.878906 C 33.855469 -3.105469 34.292969 -5.160156 34.292969 -8.09375 L 34.292969 -19.8125 C 34.292969 -21.476562 33.328125 -21.738281 32.761719 -21.738281 L 17.277344 -21.738281 C 16.925781 -21.738281 16.050781 -21.5625 16.050781 -20.164062 L 16.050781 -16.839844 C 16.050781 -15.394531 16.925781 -15.265625 17.277344 -15.265625 L 28.167969 -15.265625 C 28.167969 -15.265625 28.210938 -9.140625 28.210938 -9.140625 C 28.210938 -7.785156 27.992188 -7.21875 27.816406 -6.953125 C 27.601562 -6.605469 27.25 -6.472656 26.769531 -6.472656 L 14.523438 -6.472656 C 13.601562 -6.472656 12.816406 -6.5625 12.246094 -6.78125 C 11.679688 -6.953125 11.285156 -7.261719 10.933594 -7.742188 C 10.628906 -8.179688 10.367188 -8.835938 10.234375 -9.667969 C 10.058594 -10.542969 9.972656 -11.632812 9.972656 -12.945312 L 9.972656 -23.09375 C 9.972656 -24.40625 10.058594 -25.5 10.234375 -26.375 C 10.367188 -27.164062 10.628906 -27.816406 10.933594 -28.300781 C 11.285156 -28.738281 11.679688 -29.042969 12.246094 -29.261719 C 12.816406 -29.4375 13.601562 -29.566406 14.523438 -29.566406 L 33.109375 -29.566406 C 33.460938 -29.566406 34.335938 -29.699219 34.335938 -31.097656 L 34.335938 -34.511719 C 34.335938 -35.867188 33.460938 -36.042969 33.109375 -36.042969 Z M 33.109375 -36.042969 "/></g></g></g><g fill="#a6a6a6" fill-opacity="1"><g transform="translate(234.630511, 298.392857)"><g/></g></g><g fill="#a6a6a6" fill-opacity="1"><g transform="translate(259.288567, 298.392857)"><g><path d="M 33.109375 -36.042969 L 14.304688 -36.042969 C 12.378906 -36.042969 10.714844 -35.777344 9.359375 -35.296875 C 8.003906 -34.773438 6.824219 -33.941406 5.992188 -32.847656 C 5.117188 -31.710938 4.460938 -30.3125 4.066406 -28.5625 C 3.675781 -26.855469 3.5 -24.757812 3.5 -22.351562 L 3.5 -13.691406 C 3.5 -11.242188 3.675781 -9.140625 4.066406 -7.390625 C 4.460938 -5.6875 5.117188 -4.242188 5.992188 -3.105469 C 6.867188 -2.011719 8.003906 -1.179688 9.359375 -0.699219 C 10.714844 -0.21875 12.378906 0.0429688 14.304688 0.0429688 L 29.261719 0.0429688 C 30.878906 0.0429688 32.148438 -0.613281 33.023438 -1.878906 C 33.855469 -3.105469 34.292969 -5.160156 34.292969 -8.09375 L 34.292969 -19.8125 C 34.292969 -21.476562 33.328125 -21.738281 32.761719 -21.738281 L 17.277344 -21.738281 C 16.925781 -21.738281 16.050781 -21.5625 16.050781 -20.164062 L 16.050781 -16.839844 C 16.050781 -15.394531 16.925781 -15.265625 17.277344 -15.265625 L 28.167969 -15.265625 C 28.167969 -15.265625 28.210938 -9.140625 28.210938 -9.140625 C 28.210938 -7.785156 27.992188 -7.21875 27.816406 -6.953125 C 27.601562 -6.605469 27.25 -6.472656 26.769531 -6.472656 L 14.523438 -6.472656 C 13.601562 -6.472656 12.816406 -6.5625 12.246094 -6.78125 C 11.679688 -6.953125 11.285156 -7.261719 10.933594 -7.742188 C 10.628906 -8.179688 10.367188 -8.835938 10.234375 -9.667969 C 10.058594 -10.542969 9.972656 -11.632812 9.972656 -12.945312 L 9.972656 -23.09375 C 9.972656 -24.40625 10.058594 -25.5 10.234375 -26.375 C 10.367188 -27.164062 10.628906 -27.816406 10.933594 -28.300781 C 11.285156 -28.738281 11.679688 -29.042969 12.246094 -29.261719 C 12.816406 -29.4375 13.601562 -29.566406 14.523438 -29.566406 L 33.109375 -29.566406 C 33.460938 -29.566406 34.335938 -29.699219 34.335938 -31.097656 L 34.335938 -34.511719 C 34.335938 -35.867188 33.460938 -36.042969 33.109375 -36.042969 Z M 33.109375 -36.042969 "/></g></g></g><g fill="#a6a6a6" fill-opacity="1"><g transform="translate(299.304895, 298.392857)"><g><path d="M 33.285156 -32.847656 C 32.410156 -33.941406 31.273438 -34.773438 29.875 -35.296875 C 28.519531 -35.777344 26.855469 -36.042969 24.929688 -36.042969 L 14.257812 -36.042969 C 12.335938 -36.042969 10.714844 -35.777344 9.359375 -35.296875 C 7.960938 -34.773438 6.824219 -33.941406 5.949219 -32.847656 C 5.117188 -31.753906 4.460938 -30.3125 4.066406 -28.5625 C 3.675781 -26.855469 3.5 -24.800781 3.5 -22.351562 L 3.5 -13.691406 C 3.5 -11.242188 3.675781 -9.140625 4.066406 -7.4375 C 4.460938 -5.6875 5.117188 -4.242188 5.949219 -3.148438 C 6.824219 -2.011719 7.960938 -1.179688 9.359375 -0.699219 C 10.671875 -0.21875 12.335938 0.0429688 14.257812 0.0429688 L 24.929688 0.0429688 C 26.855469 0.0429688 28.519531 -0.21875 29.875 -0.699219 C 31.273438 -1.179688 32.410156 -2.011719 33.285156 -3.105469 C 34.160156 -4.242188 34.773438 -5.6875 35.167969 -7.4375 C 35.515625 -9.140625 35.734375 -11.242188 35.734375 -13.691406 L 35.734375 -22.351562 C 35.734375 -24.757812 35.515625 -26.855469 35.167969 -28.5625 C 34.773438 -30.3125 34.160156 -31.753906 33.285156 -32.847656 Z M 29.21875 -23.09375 L 29.21875 -12.902344 C 29.21875 -11.632812 29.175781 -10.542969 29 -9.667969 C 28.867188 -8.878906 28.605469 -8.179688 28.253906 -7.742188 C 27.949219 -7.261719 27.511719 -6.953125 26.945312 -6.78125 C 26.375 -6.5625 25.632812 -6.472656 24.710938 -6.472656 L 14.476562 -6.472656 C 13.558594 -6.472656 12.816406 -6.5625 12.246094 -6.78125 C 11.679688 -6.953125 11.242188 -7.261719 10.933594 -7.742188 C 10.585938 -8.179688 10.367188 -8.878906 10.191406 -9.667969 C 10.058594 -10.542969 9.972656 -11.632812 9.972656 -12.902344 L 9.972656 -23.09375 C 9.972656 -24.363281 10.058594 -25.457031 10.191406 -26.332031 C 10.367188 -27.164062 10.585938 -27.816406 10.933594 -28.300781 C 11.242188 -28.738281 11.679688 -29.042969 12.246094 -29.261719 C 12.816406 -29.4375 13.558594 -29.566406 14.476562 -29.566406 L 24.710938 -29.566406 C 25.632812 -29.566406 26.375 -29.4375 26.945312 -29.261719 C 27.511719 -29.042969 27.949219 -28.738281 28.253906 -28.300781 C 28.605469 -27.816406 28.867188 -27.164062 29 -26.332031 C 29.175781 -25.457031 29.21875 -24.363281 29.21875 -23.09375 Z M 29.21875 -23.09375 "/></g></g></g><g fill="#a6a6a6" fill-opacity="1"><g transform="translate(340.720696, 298.392857)"><g><path d="M 34.464844 -36.042969 L 30.574219 -36.042969 C 30.179688 -36.042969 29.347656 -35.910156 29.347656 -34.511719 L 29.347656 -8.222656 C 29.347656 -8.179688 29.347656 -8.179688 29.347656 -8.136719 L 29.128906 -8.136719 C 29.085938 -8.136719 29.042969 -8.136719 29 -8.265625 L 15.175781 -32.847656 C 14.828125 -33.503906 14.523438 -34.03125 14.214844 -34.421875 C 13.910156 -34.859375 13.601562 -35.210938 13.296875 -35.429688 C 12.945312 -35.691406 12.554688 -35.867188 12.070312 -35.953125 C 11.632812 -35.996094 11.109375 -36.042969 10.542969 -36.042969 L 7.261719 -36.042969 C 5.992188 -36.042969 5.03125 -35.605469 4.417969 -34.816406 C 3.804688 -33.984375 3.5 -32.542969 3.5 -30.398438 L 3.5 -1.488281 C 3.5 -0.132812 4.375 0.0429688 4.769531 0.0429688 L 8.660156 0.0429688 C 9.054688 0.0429688 9.886719 -0.132812 9.886719 -1.488281 L 9.886719 -27.773438 C 9.886719 -27.816406 9.886719 -27.863281 9.886719 -27.863281 L 10.105469 -27.863281 C 10.105469 -27.863281 10.148438 -27.863281 10.234375 -27.730469 L 24.101562 -3.148438 C 24.449219 -2.449219 24.800781 -1.925781 25.105469 -1.53125 C 25.414062 -1.09375 25.71875 -0.789062 26.070312 -0.570312 C 26.417969 -0.304688 26.8125 -0.175781 27.25 -0.0859375 C 27.644531 0 28.125 0.0429688 28.738281 0.0429688 L 31.929688 0.0429688 C 33.199219 0.0429688 34.160156 -0.394531 34.773438 -1.226562 C 35.386719 -2.011719 35.691406 -3.457031 35.691406 -5.597656 L 35.691406 -34.511719 C 35.691406 -35.910156 34.816406 -36.042969 34.464844 -36.042969 Z M 34.464844 -36.042969 "/></g></g></g><g fill="#a6a6a6" fill-opacity="1"><g transform="translate(382.092771, 298.392857)"><g><path d="M 29.785156 -7.828125 L 14.390625 -7.828125 C 13.472656 -7.828125 12.726562 -7.960938 12.117188 -8.136719 C 11.546875 -8.355469 11.152344 -8.660156 10.804688 -9.097656 C 10.453125 -9.578125 10.191406 -10.234375 10.058594 -11.066406 C 10.015625 -11.285156 10.015625 -11.589844 9.972656 -11.808594 C 9.972656 -11.808594 10.015625 -14.957031 10.058594 -14.957031 L 29.613281 -14.957031 C 29.960938 -14.957031 30.835938 -15.132812 30.835938 -16.488281 L 30.835938 -19.945312 C 30.835938 -21.300781 29.960938 -21.433594 29.613281 -21.433594 L 7.042969 -21.386719 C 5.773438 -21.300781 4.679688 -20.644531 4.066406 -19.550781 C 3.847656 -19.203125 3.675781 -18.851562 3.585938 -18.457031 L 3.5 -12.945312 L 3.5 -12.726562 C 3.542969 -10.671875 3.761719 -8.921875 4.066406 -7.480469 C 4.460938 -5.730469 5.117188 -4.285156 5.949219 -3.191406 C 6.824219 -2.054688 7.960938 -1.269531 9.359375 -0.789062 C 10.714844 -0.261719 12.335938 -0.0429688 14.257812 -0.0429688 L 29.785156 -0.0429688 C 30.179688 -0.0429688 31.054688 -0.175781 31.054688 -1.53125 L 31.054688 -6.34375 C 31.054688 -7.699219 30.179688 -7.828125 29.785156 -7.828125 Z M 29.832031 -36.128906 L 4.679688 -36.128906 C 4.332031 -36.128906 3.5 -35.953125 3.5 -34.554688 L 3.5 -31.140625 C 3.5 -29.785156 4.332031 -29.65625 4.679688 -29.65625 L 29.832031 -29.613281 C 30.179688 -29.613281 31.054688 -29.785156 31.054688 -31.140625 L 31.054688 -34.597656 C 31.054688 -35.953125 30.179688 -36.128906 29.832031 -36.128906 Z M 29.832031 -36.128906 "/></g></g></g><g fill="#a6a6a6" fill-opacity="1"><g transform="translate(418.829073, 298.392857)"><g/></g></g><g fill="#a6a6a6" fill-opacity="1"><g transform="translate(443.494864, 298.392857)"><g><path d="M 56.335938 -36.566406 L 51.523438 -36.566406 C 50.957031 -36.566406 50.519531 -36.214844 50.257812 -35.605469 L 41.988281 -9.359375 C 41.945312 -9.273438 41.945312 -9.273438 41.945312 -9.273438 L 41.769531 -9.230469 C 41.769531 -9.230469 41.726562 -9.273438 41.726562 -9.316406 L 34.074219 -35.605469 C 33.855469 -36.214844 33.417969 -36.566406 32.847656 -36.566406 L 27.90625 -36.566406 C 27.335938 -36.566406 26.898438 -36.214844 26.636719 -35.605469 L 18.371094 -9.359375 C 18.328125 -9.273438 18.328125 -9.273438 18.328125 -9.273438 L 18.152344 -9.230469 C 18.152344 -9.230469 18.109375 -9.273438 18.109375 -9.316406 L 10.453125 -35.605469 C 10.234375 -36.214844 9.796875 -36.566406 9.183594 -36.566406 L 4.503906 -36.566406 C 3.804688 -36.566406 3.628906 -36.128906 3.585938 -35.910156 C 3.5 -35.605469 3.5 -35.253906 3.675781 -34.859375 L 12.726562 -4.550781 C 12.816406 -4.332031 12.945312 -4.066406 13.035156 -3.894531 C 13.691406 -1.617188 15.832031 0 18.238281 0 C 19.332031 0 20.382812 -0.304688 21.257812 -0.917969 C 21.519531 -1.050781 21.695312 -1.226562 21.914062 -1.355469 C 22.527344 -1.925781 23.183594 -2.972656 23.839844 -4.59375 L 30.3125 -24.710938 L 36.347656 -4.550781 C 36.433594 -4.332031 36.566406 -4.066406 36.652344 -3.894531 C 37.308594 -1.617188 39.453125 0 41.859375 0 C 42.953125 0 44.003906 -0.304688 44.875 -0.917969 C 45.140625 -1.050781 45.359375 -1.226562 45.53125 -1.355469 C 46.1875 -1.925781 46.800781 -2.972656 47.457031 -4.59375 L 57.210938 -34.859375 C 57.34375 -35.253906 57.386719 -35.605469 57.296875 -35.910156 C 57.253906 -36.171875 57.035156 -36.566406 56.335938 -36.566406 Z M 56.335938 -36.566406 "/></g></g></g><g fill="#a6a6a6" fill-opacity="1"><g transform="translate(506.558857, 298.392857)"><g><path d="M 33.328125 -25.585938 C 33.328125 -25.542969 33.328125 -25.5 33.328125 -25.457031 C 33.328125 -25.414062 33.328125 -25.367188 33.328125 -25.324219 Z M 34.160156 -1.878906 L 26.507812 -15.003906 C 28.648438 -15.265625 30.3125 -16.183594 31.40625 -17.671875 C 32.628906 -19.464844 33.285156 -22.042969 33.328125 -25.457031 C 33.285156 -28.867188 32.628906 -31.449219 31.40625 -33.242188 C 30.09375 -35.121094 27.90625 -36.042969 24.929688 -36.042969 L 4.769531 -36.042969 C 4.375 -36.042969 3.5 -35.910156 3.5 -34.511719 L 3.5 -31.054688 C 3.5 -29.699219 4.375 -29.566406 4.769531 -29.566406 L 23.792969 -29.566406 C 24.929688 -29.566406 25.675781 -29.261719 26.113281 -28.605469 C 26.59375 -27.949219 26.8125 -26.898438 26.8125 -25.457031 C 26.8125 -24.011719 26.59375 -22.964844 26.113281 -22.308594 C 25.675781 -21.652344 24.929688 -21.34375 23.792969 -21.34375 L 4.769531 -21.34375 C 4.375 -21.34375 3.5 -21.214844 3.5 -19.859375 L 3.5 -1.488281 C 3.5 -0.132812 4.375 0.0429688 4.769531 0.0429688 L 8.746094 0.0429688 C 9.140625 0.0429688 9.972656 -0.132812 9.972656 -1.488281 L 9.972656 -14.871094 L 19.203125 -14.871094 L 27.117188 -0.832031 C 27.292969 -0.570312 27.425781 -0.351562 27.601562 -0.21875 C 27.816406 -0.0429688 28.125 0.0429688 28.519531 0.0429688 L 33.328125 0.0429688 C 33.855469 0.0429688 34.25 -0.304688 34.335938 -0.832031 C 34.378906 -1.269531 34.335938 -1.617188 34.160156 -1.878906 Z M 34.160156 -1.878906 "/></g></g></g><g fill="#a6a6a6" fill-opacity="1"><g transform="translate(546.618912, 298.392857)"><g><path d="M 33.285156 -32.847656 C 32.410156 -33.941406 31.273438 -34.773438 29.875 -35.296875 C 28.519531 -35.777344 26.855469 -36.042969 24.929688 -36.042969 L 14.257812 -36.042969 C 12.335938 -36.042969 10.714844 -35.777344 9.359375 -35.296875 C 7.960938 -34.773438 6.824219 -33.941406 5.949219 -32.847656 C 5.117188 -31.753906 4.460938 -30.3125 4.066406 -28.5625 C 3.675781 -26.855469 3.5 -24.800781 3.5 -22.351562 L 3.5 -13.691406 C 3.5 -11.242188 3.675781 -9.140625 4.066406 -7.4375 C 4.460938 -5.6875 5.117188 -4.242188 5.949219 -3.148438 C 6.824219 -2.011719 7.960938 -1.179688 9.359375 -0.699219 C 10.671875 -0.21875 12.335938 0.0429688 14.257812 0.0429688 L 24.929688 0.0429688 C 26.855469 0.0429688 28.519531 -0.21875 29.875 -0.699219 C 31.273438 -1.179688 32.410156 -2.011719 33.285156 -3.105469 C 34.160156 -4.242188 34.773438 -5.6875 35.167969 -7.4375 C 35.515625 -9.140625 35.734375 -11.242188 35.734375 -13.691406 L 35.734375 -22.351562 C 35.734375 -24.757812 35.515625 -26.855469 35.167969 -28.5625 C 34.773438 -30.3125 34.160156 -31.753906 33.285156 -32.847656 Z M 29.21875 -23.09375 L 29.21875 -12.902344 C 29.21875 -11.632812 29.175781 -10.542969 29 -9.667969 C 28.867188 -8.878906 28.605469 -8.179688 28.253906 -7.742188 C 27.949219 -7.261719 27.511719 -6.953125 26.945312 -6.78125 C 26.375 -6.5625 25.632812 -6.472656 24.710938 -6.472656 L 14.476562 -6.472656 C 13.558594 -6.472656 12.816406 -6.5625 12.246094 -6.78125 C 11.679688 -6.953125 11.242188 -7.261719 10.933594 -7.742188 C 10.585938 -8.179688 10.367188 -8.878906 10.191406 -9.667969 C 10.058594 -10.542969 9.972656 -11.632812 9.972656 -12.902344 L 9.972656 -23.09375 C 9.972656 -24.363281 10.058594 -25.457031 10.191406 -26.332031 C 10.367188 -27.164062 10.585938 -27.816406 10.933594 -28.300781 C 11.242188 -28.738281 11.679688 -29.042969 12.246094 -29.261719 C 12.816406 -29.4375 13.558594 -29.566406 14.476562 -29.566406 L 24.710938 -29.566406 C 25.632812 -29.566406 26.375 -29.4375 26.945312 -29.261719 C 27.511719 -29.042969 27.949219 -28.738281 28.253906 -28.300781 C 28.605469 -27.816406 28.867188 -27.164062 29 -26.332031 C 29.175781 -25.457031 29.21875 -24.363281 29.21875 -23.09375 Z M 29.21875 -23.09375 "/></g></g></g><g fill="#a6a6a6" fill-opacity="1"><g transform="translate(588.034723, 298.392857)"><g><path d="M 34.464844 -36.042969 L 30.574219 -36.042969 C 30.179688 -36.042969 29.347656 -35.910156 29.347656 -34.511719 L 29.347656 -8.222656 C 29.347656 -8.179688 29.347656 -8.179688 29.347656 -8.136719 L 29.128906 -8.136719 C 29.085938 -8.136719 29.042969 -8.136719 29 -8.265625 L 15.175781 -32.847656 C 14.828125 -33.503906 14.523438 -34.03125 14.214844 -34.421875 C 13.910156 -34.859375 13.601562 -35.210938 13.296875 -35.429688 C 12.945312 -35.691406 12.554688 -35.867188 12.070312 -35.953125 C 11.632812 -35.996094 11.109375 -36.042969 10.542969 -36.042969 L 7.261719 -36.042969 C 5.992188 -36.042969 5.03125 -35.605469 4.417969 -34.816406 C 3.804688 -33.984375 3.5 -32.542969 3.5 -30.398438 L 3.5 -1.488281 C 3.5 -0.132812 4.375 0.0429688 4.769531 0.0429688 L 8.660156 0.0429688 C 9.054688 0.0429688 9.886719 -0.132812 9.886719 -1.488281 L 9.886719 -27.773438 C 9.886719 -27.816406 9.886719 -27.863281 9.886719 -27.863281 L 10.105469 -27.863281 C 10.105469 -27.863281 10.148438 -27.863281 10.234375 -27.730469 L 24.101562 -3.148438 C 24.449219 -2.449219 24.800781 -1.925781 25.105469 -1.53125 C 25.414062 -1.09375 25.71875 -0.789062 26.070312 -0.570312 C 26.417969 -0.304688 26.8125 -0.175781 27.25 -0.0859375 C 27.644531 0 28.125 0.0429688 28.738281 0.0429688 L 31.929688 0.0429688 C 33.199219 0.0429688 34.160156 -0.394531 34.773438 -1.226562 C 35.386719 -2.011719 35.691406 -3.457031 35.691406 -5.597656 L 35.691406 -34.511719 C 35.691406 -35.910156 34.816406 -36.042969 34.464844 -36.042969 Z M 34.464844 -36.042969 "/></g></g></g><g fill="#a6a6a6" fill-opacity="1"><g transform="translate(629.406807, 298.392857)"><g><path d="M 33.109375 -36.042969 L 14.304688 -36.042969 C 12.378906 -36.042969 10.714844 -35.777344 9.359375 -35.296875 C 8.003906 -34.773438 6.824219 -33.941406 5.992188 -32.847656 C 5.117188 -31.710938 4.460938 -30.3125 4.066406 -28.5625 C 3.675781 -26.855469 3.5 -24.757812 3.5 -22.351562 L 3.5 -13.691406 C 3.5 -11.242188 3.675781 -9.140625 4.066406 -7.390625 C 4.460938 -5.6875 5.117188 -4.242188 5.992188 -3.105469 C 6.867188 -2.011719 8.003906 -1.179688 9.359375 -0.699219 C 10.714844 -0.21875 12.378906 0.0429688 14.304688 0.0429688 L 29.261719 0.0429688 C 30.878906 0.0429688 32.148438 -0.613281 33.023438 -1.878906 C 33.855469 -3.105469 34.292969 -5.160156 34.292969 -8.09375 L 34.292969 -19.8125 C 34.292969 -21.476562 33.328125 -21.738281 32.761719 -21.738281 L 17.277344 -21.738281 C 16.925781 -21.738281 16.050781 -21.5625 16.050781 -20.164062 L 16.050781 -16.839844 C 16.050781 -15.394531 16.925781 -15.265625 17.277344 -15.265625 L 28.167969 -15.265625 C 28.167969 -15.265625 28.210938 -9.140625 28.210938 -9.140625 C 28.210938 -7.785156 27.992188 -7.21875 27.816406 -6.953125 C 27.601562 -6.605469 27.25 -6.472656 26.769531 -6.472656 L 14.523438 -6.472656 C 13.601562 -6.472656 12.816406 -6.5625 12.246094 -6.78125 C 11.679688 -6.953125 11.285156 -7.261719 10.933594 -7.742188 C 10.628906 -8.179688 10.367188 -8.835938 10.234375 -9.667969 C 10.058594 -10.542969 9.972656 -11.632812 9.972656 -12.945312 L 9.972656 -23.09375 C 9.972656 -24.40625 10.058594 -25.5 10.234375 -26.375 C 10.367188 -27.164062 10.628906 -27.816406 10.933594 -28.300781 C 11.285156 -28.738281 11.679688 -29.042969 12.246094 -29.261719 C 12.816406 -29.4375 13.601562 -29.566406 14.523438 -29.566406 L 33.109375 -29.566406 C 33.460938 -29.566406 34.335938 -29.699219 34.335938 -31.097656 L 34.335938 -34.511719 C 34.335938 -35.867188 33.460938 -36.042969 33.109375 -36.042969 Z M 33.109375 -36.042969 "/></g></g></g></svg>